<svg width="236" height="70" viewBox="0 0 236 70" fill="none" xmlns="http://www.w3.org/2000/svg">
<path d="M44.4739 18.2057H32.652C32.4944 16.992 32.1713 15.8965 31.6826 14.9192C31.194 13.9419 30.5477 13.1065 29.7438 12.413C28.9399 11.7194 27.9863 11.1914 26.8829 10.8288C25.7953 10.4505 24.5895 10.2614 23.2654 10.2614C20.9168 10.2614 18.8914 10.8367 17.189 11.9874C15.5024 13.138 14.202 14.801 13.2878 16.9762C12.3893 19.1514 11.9401 21.7838 11.9401 24.8732C11.9401 28.0888 12.3972 30.7842 13.3114 32.9594C14.2414 35.1188 15.5418 36.7503 17.2126 37.8536C18.8992 38.9412 20.8932 39.485 23.1945 39.485C24.487 39.485 25.6613 39.3195 26.7174 38.9885C27.7893 38.6575 28.7271 38.1768 29.531 37.5463C30.3507 36.9 31.0206 36.1198 31.5408 35.2055C32.0767 34.2755 32.4471 33.2273 32.652 32.0609L44.4739 32.1318C44.269 34.2755 43.6464 36.3877 42.606 38.4684C41.5815 40.549 40.1707 42.4484 38.3738 44.1665C36.5769 45.8689 34.3859 47.2244 31.8008 48.2332C29.2315 49.242 26.284 49.7464 22.9581 49.7464C18.5761 49.7464 14.6512 48.7849 11.1835 46.8619C7.7315 44.9231 5.00459 42.1016 3.00276 38.3974C1.00092 34.6932 0 30.1852 0 24.8732C0 19.5455 1.01668 15.0295 3.05004 11.3254C5.0834 7.62117 7.83396 4.80756 11.3017 2.88454C14.7695 0.961512 18.6549 0 22.9581 0C25.8899 0 28.601 0.409825 31.0915 1.22948C33.582 2.03336 35.773 3.21555 37.6645 4.77603C39.556 6.32076 41.0928 8.22014 42.275 10.4742C43.4572 12.7282 44.1902 15.3054 44.4739 18.2057Z" fill="white"/>
<path d="M77.3446 15.1793C77.187 13.4454 76.4855 12.0977 75.2403 11.1362C74.0108 10.1589 72.2533 9.67029 69.9677 9.67029C68.4545 9.67029 67.1935 9.86732 66.1847 10.2614C65.1759 10.6554 64.4193 11.1993 63.9149 11.8928C63.4105 12.5706 63.1505 13.3508 63.1347 14.2335C63.1032 14.9586 63.245 15.597 63.5603 16.1487C63.8913 16.7004 64.3642 17.189 64.9789 17.6146C65.6094 18.0244 66.366 18.3869 67.2487 18.7022C68.1314 19.0174 69.1245 19.2933 70.2278 19.5297L74.3891 20.4755C76.785 20.9956 78.8972 21.6892 80.7257 22.5561C82.5699 23.4231 84.1146 24.4555 85.3598 25.6535C86.6208 26.8514 87.5745 28.2306 88.2207 29.7911C88.867 31.3516 89.198 33.1012 89.2138 35.04C89.198 38.0979 88.4256 40.7224 86.8967 42.9134C85.3677 45.1044 83.1688 46.7831 80.3001 47.9495C77.4471 49.1159 74.0029 49.6991 69.9677 49.6991C65.9168 49.6991 62.386 49.0923 59.3753 47.8786C56.3647 46.6649 54.024 44.8207 52.3532 42.3459C50.6823 39.8712 49.8233 36.7424 49.776 32.9594H60.9831C61.0777 34.5199 61.4954 35.8203 62.2362 36.8606C62.9771 37.9009 63.9938 38.689 65.2863 39.225C66.5946 39.7609 68.1078 40.0289 69.8259 40.0289C71.4021 40.0289 72.7419 39.8161 73.8453 39.3905C74.9645 38.9649 75.8235 38.3738 76.4225 37.6172C77.0215 36.8606 77.3288 35.9937 77.3446 35.0164C77.3288 34.1022 77.0451 33.3219 76.4934 32.6757C75.9417 32.0136 75.0906 31.4462 73.9399 30.9733C72.805 30.4847 71.3548 30.0354 69.5894 29.6256L64.5297 28.4434C60.3369 27.4819 57.0346 25.9293 54.623 23.7856C52.2113 21.6261 51.0133 18.7101 51.0291 15.0374C51.0133 12.0425 51.8172 9.41809 53.4408 7.16405C55.0643 4.91002 57.3105 3.1525 60.1792 1.8915C63.048 0.630501 66.3187 0 69.9914 0C73.7429 0 76.9978 0.638381 79.7563 1.91514C82.5305 3.17614 84.682 4.94942 86.211 7.23499C87.74 9.52055 88.5202 12.1686 88.5517 15.1793H77.3446Z" fill="white"/>
<path d="M139.078 18.2057H127.257C127.099 16.992 126.776 15.8965 126.287 14.9192C125.799 13.9419 125.152 13.1065 124.348 12.413C123.544 11.7194 122.591 11.1914 121.487 10.8288C120.4 10.4505 119.194 10.2614 117.87 10.2614C115.521 10.2614 113.496 10.8367 111.794 11.9874C110.107 13.138 108.807 14.801 107.892 16.9762C106.994 19.1514 106.545 21.7838 106.545 24.8732C106.545 28.0888 107.002 30.7842 107.916 32.9594C108.846 35.1188 110.146 36.7503 111.817 37.8536C113.504 38.9412 115.498 39.485 117.799 39.485C119.092 39.485 120.266 39.3195 121.322 38.9885C122.394 38.6575 123.332 38.1768 124.136 37.5463C124.955 36.9 125.625 36.1198 126.145 35.2055C126.681 34.2755 127.052 33.2273 127.257 32.0609L139.078 32.1318C138.873 34.2755 138.251 36.3877 137.211 38.4684C136.186 40.549 134.775 42.4484 132.978 44.1665C131.181 45.8689 128.99 47.2244 126.405 48.2332C123.836 49.242 120.888 49.7464 117.563 49.7464C113.181 49.7464 109.256 48.7849 105.788 46.8619C102.336 44.9231 99.6091 42.1016 97.6073 38.3974C95.6054 34.6932 94.6045 30.1852 94.6045 24.8732C94.6045 19.5455 95.6212 15.0295 97.6546 11.3254C99.6879 7.62117 102.438 4.80756 105.906 2.88454C109.374 0.961512 113.259 0 117.563 0C120.494 0 123.206 0.409825 125.696 1.22948C128.187 2.03336 130.378 3.21555 132.269 4.77603C134.161 6.32076 135.697 8.22014 136.88 10.4742C138.062 12.7282 138.795 15.3054 139.078 18.2057Z" fill="white"/>
<path d="M145.775 49.0844V0.662025H165.778C169.403 0.662025 172.532 1.31617 175.165 2.62446C177.813 3.91698 179.854 5.77695 181.288 8.20438C182.723 10.616 183.44 13.4769 183.44 16.7871C183.44 20.1445 182.707 22.9975 181.241 25.3461C179.775 27.6789 177.695 29.4601 174.999 30.6896C172.304 31.9033 169.112 32.5101 165.423 32.5101H152.774V23.2891H163.248C165.014 23.2891 166.487 23.0605 167.67 22.6034C168.868 22.1305 169.774 21.4212 170.389 20.4755C171.003 19.514 171.311 18.2845 171.311 16.7871C171.311 15.2896 171.003 14.0523 170.389 13.075C169.774 12.082 168.868 11.3411 167.67 10.8525C166.472 10.3481 164.998 10.0959 163.248 10.0959H157.479V49.0844H145.775ZM173.037 26.9539L185.095 49.0844H172.327L160.506 26.9539H173.037Z" fill="white"/>
<path d="M204.152 49.0844V0.662025H215.856V39.5796H236V49.0844H204.152Z" fill="white"/>
<path d="M190.405 49.4154L190.375 46.9648L195.488 44.8261L195.487 44.7301L190.324 42.7112L190.295 40.2606L198.593 40.1639L198.616 42.0908L193.519 42.1502L193.52 42.2181L198.587 44.1262L198.602 45.3575L193.553 47.3836L193.554 47.4515L198.679 47.3918L198.702 49.3187L190.405 49.4154Z" fill="#FFD94A"/>
<path d="M198.578 38.9295L190.28 39.0262L190.212 33.3175L191.841 33.2985L191.885 37.0284L193.587 37.0085L193.546 33.5705L195.179 33.5515L195.22 36.9895L196.925 36.9696L196.881 33.2397L198.509 33.2208L198.578 38.9295Z" fill="#FFD94A"/>
<path d="M190.197 32.0781L190.168 29.6275L195.28 27.4888L195.279 27.3929L190.117 25.3739L190.088 22.9233L198.385 22.8266L198.408 24.7535L193.311 24.8129L193.312 24.8809L198.38 26.789L198.395 28.0203L193.346 30.0463L193.346 30.1143L198.472 30.0545L198.495 31.9815L190.197 32.0781Z" fill="#FFD94A"/>
<path d="M198.37 21.5923L190.073 21.689L190.032 18.2749C190.025 17.6619 190.106 17.1479 190.277 16.7327C190.447 16.3149 190.69 16.0002 191.003 15.7886C191.317 15.5744 191.681 15.4649 192.097 15.46C192.413 15.4563 192.696 15.5183 192.946 15.646C193.194 15.7738 193.4 15.9513 193.565 16.1786C193.729 16.4059 193.846 16.6698 193.914 16.9702L193.995 16.9693C194.008 16.6386 194.095 16.3324 194.256 16.0506C194.417 15.7662 194.644 15.537 194.937 15.363C195.226 15.189 195.571 15.0997 195.971 15.095C196.416 15.0898 196.816 15.1971 197.17 15.4169C197.521 15.6367 197.8 15.9573 198.008 16.3787C198.213 16.8002 198.319 17.3134 198.326 17.9184L198.37 21.5923ZM196.73 19.6322L196.715 18.4089C196.71 17.9798 196.624 17.665 196.457 17.4643C196.29 17.261 196.059 17.1611 195.764 17.1645C195.551 17.167 195.368 17.2185 195.215 17.3189C195.06 17.4193 194.941 17.5606 194.86 17.7429C194.775 17.9251 194.735 18.1428 194.738 18.396L194.753 19.6553L196.73 19.6322ZM193.461 19.6703L193.447 18.575C193.445 18.3591 193.406 18.1676 193.331 18.0006C193.256 17.8335 193.149 17.7041 193.01 17.6125C192.872 17.5181 192.705 17.4721 192.51 17.4744C192.232 17.4776 192.015 17.5774 191.858 17.7738C191.7 17.9703 191.624 18.2337 191.628 18.5642L191.641 19.6915L193.461 19.6703Z" fill="#FFD94A"/>
<path d="M198.281 14.1165L189.983 14.2132L189.915 8.5044L191.544 8.48542L191.588 12.2153L193.29 12.1955L193.249 8.75743L194.882 8.7384L194.923 12.1765L196.628 12.1566L196.584 8.42669L198.212 8.40771L198.281 14.1165Z" fill="#FFD94A"/>
<path d="M198.198 7.1684L189.9 7.2651L189.86 3.883C189.852 3.27001 189.958 2.73967 190.177 2.29197C190.393 1.84164 190.708 1.49279 191.121 1.24541C191.531 0.998067 192.02 0.871089 192.587 0.864479C193.162 0.857775 193.653 0.976008 194.058 1.21918C194.461 1.46238 194.77 1.81063 194.986 2.26391C195.2 2.71723 195.31 3.25572 195.318 3.87937L195.343 6.01817L193.763 6.03658L193.742 4.26558C193.739 3.96708 193.696 3.71834 193.616 3.51937C193.532 3.31776 193.409 3.16593 193.246 3.06387C193.08 2.96185 192.868 2.91234 192.612 2.91533C192.355 2.91832 192.144 2.97276 191.977 3.07865C191.809 3.18458 191.683 3.3393 191.602 3.54283C191.518 3.74639 191.478 3.99609 191.481 4.29192L191.493 5.26737L198.174 5.18952L198.198 7.1684ZM194.35 2.60319L198.118 0.520142L198.144 2.67893L194.376 4.722L194.35 2.60319Z" fill="#FFD94A"/>
<path d="M3 67.3849V58.5763H5.20279V65.6559H8.99427V67.3849H3Z" fill="white"/>
<path d="M13.3298 67.5097C12.6148 67.5097 11.9977 67.3735 11.4785 67.1011C10.9623 66.8258 10.5648 66.4344 10.2859 65.9269C10.01 65.4165 9.87205 64.81 9.87205 64.1075C9.87205 63.4251 10.0115 62.8287 10.2904 62.3183C10.5692 61.805 10.9623 61.4065 11.4696 61.1226C11.9769 60.8358 12.5747 60.6925 13.263 60.6925C13.7496 60.6925 14.1946 60.7656 14.598 60.9118C15.0015 61.0581 15.3501 61.2746 15.6438 61.5613C15.9375 61.848 16.166 62.2022 16.3291 62.6237C16.4923 63.0423 16.5739 63.5226 16.5739 64.0645V64.5892H10.633V63.3677H14.5491C14.5461 63.1441 14.4912 62.9448 14.3844 62.7699C14.2776 62.595 14.1308 62.4588 13.9439 62.3613C13.7599 62.2609 13.5478 62.2108 13.3075 62.2108C13.0642 62.2108 12.8462 62.2638 12.6534 62.3699C12.4605 62.4731 12.3077 62.6151 12.195 62.7957C12.0823 62.9735 12.0229 63.1756 12.017 63.4022V64.6452C12.017 64.9147 12.0719 65.1513 12.1816 65.3548C12.2914 65.5556 12.4472 65.7118 12.6489 65.8237C12.8506 65.9355 13.0909 65.9914 13.3698 65.9914C13.5627 65.9914 13.7377 65.9656 13.8949 65.914C14.0522 65.8624 14.1872 65.7864 14.2999 65.686C14.4126 65.5857 14.4972 65.4624 14.5535 65.3161L16.5516 65.372C16.4686 65.805 16.2861 66.1821 16.0043 66.5032C15.7254 66.8215 15.359 67.0695 14.9051 67.2473C14.4512 67.4222 13.9261 67.5097 13.3298 67.5097Z" fill="white"/>
<path d="M19.8614 63.6172V67.3849H17.6853V58.5763H19.7902V61.9914H19.8658C20.0201 61.5842 20.2723 61.2659 20.6224 61.0366C20.9754 60.8072 21.4071 60.6925 21.9173 60.6925C22.3979 60.6925 22.8162 60.7957 23.1723 61.0022C23.5283 61.2057 23.8042 61.4939 24 61.8667C24.1987 62.2394 24.2966 62.6753 24.2937 63.1742V67.3849H22.1176V63.5871C22.1206 63.2201 22.0256 62.9333 21.8328 62.7269C21.6399 62.5204 21.3685 62.4172 21.0184 62.4172C20.79 62.4172 20.5882 62.4659 20.4132 62.5634C20.2411 62.6581 20.1061 62.7943 20.0082 62.972C19.9133 63.1498 19.8644 63.3649 19.8614 63.6172Z" fill="white"/>
<path d="M25.6521 67.3849V60.7785H27.8282V67.3849H25.6521ZM26.7423 60.0086C26.4368 60.0086 26.1742 59.9111 25.9547 59.7161C25.7351 59.5183 25.6254 59.2803 25.6254 59.0022C25.6254 58.7269 25.7351 58.4918 25.9547 58.2968C26.1742 58.0989 26.4368 58 26.7423 58C27.0509 58 27.3134 58.0989 27.53 58.2968C27.7495 58.4918 27.8593 58.7269 27.8593 59.0022C27.8593 59.2803 27.7495 59.5183 27.53 59.7161C27.3134 59.9111 27.0509 60.0086 26.7423 60.0086Z" fill="white"/>
<path d="M32.3995 70C31.7498 70 31.1935 69.9125 30.7307 69.7376C30.2679 69.5627 29.9045 69.3233 29.6405 69.0194C29.3764 68.7154 29.2177 68.3713 29.1643 67.9871L31.2247 67.8753C31.2633 68.01 31.3345 68.1276 31.4383 68.228C31.5451 68.3283 31.6831 68.4057 31.8522 68.4602C32.0242 68.5147 32.226 68.5419 32.4574 68.5419C32.8223 68.5419 33.1234 68.4559 33.3607 68.2839C33.601 68.1147 33.7212 67.8179 33.7212 67.3935V66.2323H33.6455C33.5595 66.4358 33.429 66.6179 33.2539 66.7785C33.0789 66.9391 32.8608 67.0652 32.5998 67.157C32.3417 67.2487 32.045 67.2946 31.7098 67.2946C31.2113 67.2946 30.7545 67.1828 30.3391 66.9591C29.9268 66.7326 29.596 66.3828 29.3468 65.9097C29.1005 65.4337 28.9774 64.8215 28.9774 64.0731C28.9774 63.3018 29.105 62.6667 29.3601 62.1677C29.6152 61.666 29.949 61.2946 30.3614 61.0538C30.7767 60.8129 31.2232 60.6925 31.7009 60.6925C32.0598 60.6925 32.3669 60.7527 32.622 60.8731C32.8801 60.9907 33.0922 61.1427 33.2584 61.329C33.4245 61.5154 33.5506 61.709 33.6366 61.9097H33.6989V60.7785H35.8661V67.4108C35.8661 67.9699 35.7208 68.4416 35.43 68.8258C35.1393 69.21 34.7328 69.5011 34.2107 69.6989C33.6886 69.8996 33.0848 70 32.3995 70ZM32.4663 65.7634C32.7303 65.7634 32.9558 65.6961 33.1427 65.5613C33.3296 65.4265 33.4735 65.233 33.5743 64.9806C33.6752 64.7283 33.7256 64.4258 33.7256 64.0731C33.7256 63.7147 33.6752 63.4065 33.5743 63.1484C33.4764 62.8875 33.3326 62.6867 33.1427 62.5462C32.9558 62.4057 32.7303 62.3355 32.4663 62.3355C32.1963 62.3355 31.9679 62.4072 31.781 62.5505C31.5941 62.6939 31.4516 62.8961 31.3537 63.157C31.2588 63.4151 31.2113 63.7204 31.2113 64.0731C31.2113 64.4258 31.2603 64.7283 31.3582 64.9806C31.4561 65.233 31.597 65.4265 31.781 65.5613C31.9679 65.6961 32.1963 65.7634 32.4663 65.7634Z" fill="white"/>
<path d="M39.4295 63.6172V67.3849H37.2535V58.5763H39.3583V61.9914H39.434C39.5883 61.5842 39.8404 61.2659 40.1905 61.0366C40.5436 60.8072 40.9752 60.6925 41.4855 60.6925C41.9661 60.6925 42.3844 60.7957 42.7404 61.0022C43.0964 61.2057 43.3723 61.4939 43.5681 61.8667C43.7669 62.2394 43.8648 62.6753 43.8618 63.1742V67.3849H41.6857V63.5871C41.6887 63.2201 41.5938 62.9333 41.4009 62.7269C41.2081 62.5204 40.9366 62.4172 40.5866 62.4172C40.3581 62.4172 40.1564 62.4659 39.9814 62.5634C39.8093 62.6581 39.6743 62.7943 39.5764 62.972C39.4815 63.1498 39.4325 63.3649 39.4295 63.6172Z" fill="white"/>
<path d="M53.4262 58.5763H55.6245V64.2581C55.6245 64.9147 55.4628 65.4867 55.1395 65.9742C54.8161 66.4588 54.3652 66.8344 53.7866 67.1011C53.2081 67.3649 52.5362 67.4968 51.7708 67.4968C50.9964 67.4968 50.32 67.3649 49.7415 67.1011C49.163 66.8344 48.7135 66.4588 48.3931 65.9742C48.0727 65.4867 47.9125 64.9147 47.9125 64.2581V58.5763H50.1153V64.0731C50.1153 64.3771 50.1836 64.648 50.32 64.886C50.4595 65.124 50.6538 65.3104 50.903 65.4452C51.1522 65.5799 51.4415 65.6473 51.7708 65.6473C52.1001 65.6473 52.3878 65.5799 52.6341 65.4452C52.8833 65.3104 53.0776 65.124 53.217 64.886C53.3565 64.648 53.4262 64.3771 53.4262 64.0731V58.5763Z" fill="white"/>
<path d="M59.1813 63.6172V67.3849H57.0052V60.7785H59.0745V61.9914H59.1501C59.3014 61.5871 59.5595 61.2703 59.9244 61.0409C60.2893 60.8086 60.724 60.6925 61.2283 60.6925C61.7089 60.6925 62.1257 60.7971 62.4788 61.0065C62.8348 61.2129 63.1107 61.5025 63.3065 61.8753C63.5053 62.2452 63.6032 62.6781 63.6002 63.1742V67.3849H61.4241V63.5871C61.4271 63.2201 61.3307 62.9333 61.1349 62.7269C60.942 62.5204 60.6735 62.4172 60.3294 62.4172C60.101 62.4172 59.8992 62.4659 59.7242 62.5634C59.5521 62.6581 59.4186 62.7943 59.3237 62.972C59.2317 63.1498 59.1842 63.3649 59.1813 63.6172Z" fill="white"/>
<path d="M64.9475 67.3849V60.7785H67.1236V67.3849H64.9475ZM66.0377 60.0086C65.7322 60.0086 65.4696 59.9111 65.2501 59.7161C65.0305 59.5183 64.9208 59.2803 64.9208 59.0022C64.9208 58.7269 65.0305 58.4918 65.2501 58.2968C65.4696 58.0989 65.7322 58 66.0377 58C66.3463 58 66.6088 58.0989 66.8254 58.2968C67.0449 58.4918 67.1547 58.7269 67.1547 59.0022C67.1547 59.2803 67.0449 59.5183 66.8254 59.7161C66.6088 59.9111 66.3463 60.0086 66.0377 60.0086Z" fill="white"/>
<path d="M75.1393 60.7785L72.7941 67.3849H70.302L67.9613 60.7785H70.2531L71.5125 65.329H71.5837L72.8475 60.7785H75.1393Z" fill="white"/>
<path d="M78.9486 67.5097C78.2336 67.5097 77.6165 67.3735 77.0973 67.1011C76.5811 66.8258 76.1836 66.4344 75.9047 65.9269C75.6288 65.4165 75.4908 64.81 75.4908 64.1075C75.4908 63.4251 75.6303 62.8287 75.9092 62.3183C76.188 61.805 76.5811 61.4065 77.0884 61.1226C77.5957 60.8358 78.1935 60.6925 78.8818 60.6925C79.3684 60.6925 79.8134 60.7656 80.2168 60.9118C80.6203 61.0581 80.9689 61.2746 81.2626 61.5613C81.5563 61.848 81.7848 62.2022 81.9479 62.6237C82.1111 63.0423 82.1927 63.5226 82.1927 64.0645V64.5892H76.2518V63.3677H80.1679C80.1649 63.1441 80.11 62.9448 80.0032 62.7699C79.8964 62.595 79.7496 62.4588 79.5627 62.3613C79.3787 62.2609 79.1666 62.2108 78.9263 62.2108C78.683 62.2108 78.465 62.2638 78.2722 62.3699C78.0793 62.4731 77.9265 62.6151 77.8138 62.7957C77.7011 62.9735 77.6417 63.1756 77.6358 63.4022V64.6452C77.6358 64.9147 77.6907 65.1513 77.8004 65.3548C77.9102 65.5556 78.066 65.7118 78.2677 65.8237C78.4694 65.9355 78.7097 65.9914 78.9886 65.9914C79.1815 65.9914 79.3565 65.9656 79.5137 65.914C79.671 65.8624 79.806 65.7864 79.9187 65.686C80.0314 65.5857 80.116 65.4624 80.1723 65.3161L82.1704 65.372C82.0874 65.805 81.9049 66.1821 81.6231 66.5032C81.3442 66.8215 80.9778 67.0695 80.5239 67.2473C80.07 67.4222 79.5449 67.5097 78.9486 67.5097Z" fill="white"/>
<path d="M83.3041 67.3849V60.7785H85.4179V61.9828H85.4891C85.6137 61.547 85.8169 61.2229 86.0988 61.0108C86.3806 60.7957 86.7084 60.6882 87.0822 60.6882C87.1831 60.6882 87.2869 60.6953 87.3937 60.7097C87.5005 60.7211 87.5999 60.7398 87.6919 60.7656V62.5935C87.588 62.5591 87.4516 62.5319 87.2825 62.5118C87.1163 62.4918 86.968 62.4817 86.8375 62.4817C86.5794 62.4817 86.3465 62.5376 86.1388 62.6495C85.9341 62.7584 85.7724 62.9118 85.6537 63.1097C85.538 63.3047 85.4802 63.5341 85.4802 63.7978V67.3849H83.3041Z" fill="white"/>
<path d="M94.5461 62.7957L92.548 62.8473C92.5273 62.7097 92.4709 62.5878 92.3789 62.4817C92.287 62.3728 92.1668 62.2882 92.0185 62.228C91.8731 62.1649 91.704 62.1333 91.5112 62.1333C91.259 62.1333 91.0439 62.1821 90.8659 62.2796C90.6909 62.3771 90.6048 62.509 90.6078 62.6753C90.6048 62.8043 90.6582 62.9161 90.768 63.0108C90.8807 63.1054 91.081 63.1814 91.3688 63.2387L92.686 63.4796C93.3683 63.6057 93.8756 63.8151 94.2079 64.1075C94.5432 64.4 94.7123 64.7871 94.7152 65.2688C94.7123 65.7219 94.5728 66.1161 94.2969 66.4516C94.024 66.7871 93.6502 67.048 93.1755 67.2344C92.7008 67.4179 92.1579 67.5097 91.5468 67.5097C90.5707 67.5097 89.8009 67.3161 89.2372 66.929C88.6765 66.5391 88.3561 66.0172 88.276 65.3634L90.4253 65.3118C90.4728 65.5527 90.5959 65.7362 90.7947 65.8624C90.9935 65.9885 91.2471 66.0516 91.5557 66.0516C91.8345 66.0516 92.0615 66.0014 92.2365 65.9011C92.4116 65.8007 92.5006 65.6674 92.5035 65.5011C92.5006 65.352 92.4323 65.233 92.2988 65.1441C92.1653 65.0523 91.9562 64.9806 91.6714 64.929L90.4787 64.7097C89.7934 64.5892 89.2832 64.367 88.9479 64.043C88.6127 63.7161 88.4465 63.3004 88.4495 62.7957C88.4465 62.3541 88.5682 61.9771 88.8144 61.6645C89.0607 61.3491 89.4107 61.1082 89.8646 60.9419C90.3185 60.7756 90.854 60.6925 91.4711 60.6925C92.3967 60.6925 93.1266 60.8803 93.6606 61.2559C94.1946 61.6287 94.4898 62.1419 94.5461 62.7957Z" fill="white"/>
<path d="M95.7866 67.3849V60.7785H97.9627V67.3849H95.7866ZM96.8769 60.0086C96.5713 60.0086 96.3087 59.9111 96.0892 59.7161C95.8697 59.5183 95.7599 59.2803 95.7599 59.0022C95.7599 58.7269 95.8697 58.4918 96.0892 58.2968C96.3087 58.0989 96.5713 58 96.8769 58C97.1854 58 97.448 58.0989 97.6645 58.2968C97.8841 58.4918 97.9938 58.7269 97.9938 59.0022C97.9938 59.2803 97.8841 59.5183 97.6645 59.7161C97.448 59.9111 97.1854 60.0086 96.8769 60.0086Z" fill="white"/>
<path d="M103.206 60.7785V62.3269H98.8939V60.7785H103.206ZM99.7972 59.1957H101.973V65.3075C101.973 65.4366 101.994 65.5412 102.036 65.6215C102.08 65.6989 102.144 65.7548 102.227 65.7892C102.31 65.8208 102.409 65.8366 102.525 65.8366C102.608 65.8366 102.696 65.8294 102.788 65.8151C102.883 65.7978 102.954 65.7835 103.001 65.772L103.331 67.2903C103.227 67.319 103.08 67.3548 102.89 67.3978C102.703 67.4409 102.479 67.4681 102.218 67.4796C101.708 67.5025 101.27 67.4452 100.905 67.3075C100.543 67.167 100.266 66.9491 100.073 66.6538C99.8833 66.3584 99.7913 65.9871 99.7972 65.5398V59.1957Z" fill="white"/>
<path d="M105.647 69.8624C105.386 69.8624 105.14 69.8423 104.908 69.8022C104.677 69.7649 104.478 69.7147 104.312 69.6516L104.792 68.1247C105.006 68.1935 105.199 68.2337 105.371 68.2452C105.546 68.2566 105.696 68.2294 105.82 68.1634C105.948 68.1004 106.046 67.9871 106.114 67.8237L106.199 67.6258L103.769 60.7785H106.047L107.307 65.4925H107.378L108.655 60.7785H110.947L108.37 68.0172C108.246 68.3785 108.069 68.6968 107.841 68.972C107.615 69.2502 107.323 69.4681 106.964 69.6258C106.608 69.7835 106.169 69.8624 105.647 69.8624Z" fill="white"/>
<path d="M122.746 61.7677H120.521C120.492 61.547 120.431 61.3477 120.339 61.1699C120.247 60.9921 120.125 60.8401 119.974 60.714C119.823 60.5878 119.643 60.4918 119.435 60.4258C119.231 60.357 119.004 60.3226 118.755 60.3226C118.313 60.3226 117.931 60.4272 117.611 60.6366C117.294 60.8459 117.049 61.1484 116.877 61.5441C116.708 61.9398 116.623 62.4186 116.623 62.9806C116.623 63.5656 116.709 64.0559 116.881 64.4516C117.056 64.8444 117.301 65.1412 117.615 65.3419C117.933 65.5398 118.308 65.6387 118.741 65.6387C118.985 65.6387 119.206 65.6086 119.404 65.5484C119.606 65.4882 119.783 65.4007 119.934 65.286C120.088 65.1685 120.214 65.0265 120.312 64.8602C120.413 64.691 120.483 64.5004 120.521 64.2882L122.746 64.3011C122.708 64.691 122.591 65.0753 122.395 65.4538C122.202 65.8323 121.936 66.1778 121.598 66.4903C121.26 66.8 120.848 67.0466 120.361 67.2301C119.878 67.4136 119.323 67.5054 118.697 67.5054C117.872 67.5054 117.133 67.3305 116.481 66.9806C115.831 66.628 115.318 66.1147 114.941 65.4409C114.564 64.767 114.376 63.947 114.376 62.9806C114.376 62.0115 114.567 61.19 114.95 60.5161C115.332 59.8423 115.85 59.3305 116.503 58.9806C117.156 58.6308 117.887 58.4559 118.697 58.4559C119.249 58.4559 119.759 58.5305 120.228 58.6796C120.696 58.8258 121.109 59.0409 121.465 59.3247C121.821 59.6057 122.11 59.9513 122.332 60.3613C122.555 60.7713 122.693 61.2401 122.746 61.7677Z" fill="white"/>
<path d="M127.198 67.5097C126.48 67.5097 125.863 67.3677 125.346 67.0839C124.833 66.7971 124.437 66.3986 124.158 65.8882C123.882 65.3749 123.744 64.7799 123.744 64.1032C123.744 63.4237 123.882 62.8287 124.158 62.3183C124.437 61.805 124.833 61.4065 125.346 61.1226C125.863 60.8358 126.48 60.6925 127.198 60.6925C127.915 60.6925 128.531 60.8358 129.044 61.1226C129.561 61.4065 129.957 61.805 130.233 62.3183C130.511 62.8287 130.651 63.4237 130.651 64.1032C130.651 64.7799 130.511 65.3749 130.233 65.8882C129.957 66.3986 129.561 66.7971 129.044 67.0839C128.531 67.3677 127.915 67.5097 127.198 67.5097ZM127.211 65.9226C127.472 65.9226 127.693 65.8452 127.874 65.6903C128.055 65.5355 128.193 65.3204 128.288 65.0452C128.386 64.7699 128.435 64.4516 128.435 64.0903C128.435 63.7233 128.386 63.4022 128.288 63.1269C128.193 62.8516 128.055 62.6366 127.874 62.4817C127.693 62.3269 127.472 62.2495 127.211 62.2495C126.941 62.2495 126.712 62.3269 126.526 62.4817C126.342 62.6366 126.201 62.8516 126.103 63.1269C126.008 63.4022 125.96 63.7233 125.96 64.0903C125.96 64.4516 126.008 64.7699 126.103 65.0452C126.201 65.3204 126.342 65.5355 126.526 65.6903C126.712 65.8452 126.941 65.9226 127.211 65.9226Z" fill="white"/>
<path d="M133.942 58.5763V67.3849H131.766V58.5763H133.942Z" fill="white"/>
<path d="M137.503 58.5763V67.3849H135.327V58.5763H137.503Z" fill="white"/>
<path d="M142.083 67.5097C141.368 67.5097 140.751 67.3735 140.232 67.1011C139.716 66.8258 139.318 66.4344 139.039 65.9269C138.763 65.4165 138.625 64.81 138.625 64.1075C138.625 63.4251 138.765 62.8287 139.044 62.3183C139.323 61.805 139.716 61.4065 140.223 61.1226C140.73 60.8358 141.328 60.6925 142.016 60.6925C142.503 60.6925 142.948 60.7656 143.351 60.9118C143.755 61.0581 144.103 61.2746 144.397 61.5613C144.691 61.848 144.919 62.2022 145.082 62.6237C145.246 63.0423 145.327 63.5226 145.327 64.0645V64.5892H139.386V63.3677H143.302C143.299 63.1441 143.245 62.9448 143.138 62.7699C143.031 62.595 142.884 62.4588 142.697 62.3613C142.513 62.2609 142.301 62.2108 142.061 62.2108C141.818 62.2108 141.6 62.2638 141.407 62.3699C141.214 62.4731 141.061 62.6151 140.948 62.7957C140.836 62.9735 140.776 63.1756 140.77 63.4022V64.6452C140.77 64.9147 140.825 65.1513 140.935 65.3548C141.045 65.5556 141.2 65.7118 141.402 65.8237C141.604 65.9355 141.844 65.9914 142.123 65.9914C142.316 65.9914 142.491 65.9656 142.648 65.914C142.805 65.8624 142.94 65.7864 143.053 65.686C143.166 65.5857 143.251 65.4624 143.307 65.3161L145.305 65.372C145.222 65.805 145.039 66.1821 144.758 66.5032C144.479 66.8215 144.112 67.0695 143.658 67.2473C143.205 67.4222 142.679 67.5097 142.083 67.5097Z" fill="white"/>
<path d="M149.625 70C148.975 70 148.419 69.9125 147.956 69.7376C147.493 69.5627 147.13 69.3233 146.866 69.0194C146.602 68.7154 146.443 68.3713 146.39 67.9871L148.45 67.8753C148.489 68.01 148.56 68.1276 148.664 68.228C148.77 68.3283 148.908 68.4057 149.078 68.4602C149.25 68.5147 149.451 68.5419 149.683 68.5419C150.048 68.5419 150.349 68.4559 150.586 68.2839C150.826 68.1147 150.947 67.8179 150.947 67.3935V66.2323H150.871C150.785 66.4358 150.654 66.6179 150.479 66.7785C150.304 66.9391 150.086 67.0652 149.825 67.157C149.567 67.2487 149.27 67.2946 148.935 67.2946C148.437 67.2946 147.98 67.1828 147.564 66.9591C147.152 66.7326 146.821 66.3828 146.572 65.9097C146.326 65.4337 146.203 64.8215 146.203 64.0731C146.203 63.3018 146.33 62.6667 146.585 62.1677C146.841 61.666 147.174 61.2946 147.587 61.0538C148.002 60.8129 148.449 60.6925 148.926 60.6925C149.285 60.6925 149.592 60.7527 149.847 60.8731C150.105 60.9907 150.318 61.1427 150.484 61.329C150.65 61.5154 150.776 61.709 150.862 61.9097H150.924V60.7785H153.092V67.4108C153.092 67.9699 152.946 68.4416 152.655 68.8258C152.365 69.21 151.958 69.5011 151.436 69.6989C150.914 69.8996 150.31 70 149.625 70ZM149.692 65.7634C149.956 65.7634 150.181 65.6961 150.368 65.5613C150.555 65.4265 150.699 65.233 150.8 64.9806C150.901 64.7283 150.951 64.4258 150.951 64.0731C150.951 63.7147 150.901 63.4065 150.8 63.1484C150.702 62.8875 150.558 62.6867 150.368 62.5462C150.181 62.4057 149.956 62.3355 149.692 62.3355C149.422 62.3355 149.193 62.4072 149.006 62.5505C148.819 62.6939 148.677 62.8961 148.579 63.157C148.484 63.4151 148.437 63.7204 148.437 64.0731C148.437 64.4258 148.486 64.7283 148.584 64.9806C148.681 65.233 148.822 65.4265 149.006 65.5613C149.193 65.6961 149.422 65.7634 149.692 65.7634Z" fill="white"/>
<path d="M157.674 67.5097C156.959 67.5097 156.342 67.3735 155.823 67.1011C155.307 66.8258 154.909 66.4344 154.63 65.9269C154.354 65.4165 154.216 64.81 154.216 64.1075C154.216 63.4251 154.356 62.8287 154.635 62.3183C154.913 61.805 155.307 61.4065 155.814 61.1226C156.321 60.8358 156.919 60.6925 157.607 60.6925C158.094 60.6925 158.539 60.7656 158.942 60.9118C159.346 61.0581 159.694 61.2746 159.988 61.5613C160.282 61.848 160.51 62.2022 160.673 62.6237C160.837 63.0423 160.918 63.5226 160.918 64.0645V64.5892H154.977V63.3677H158.893C158.89 63.1441 158.835 62.9448 158.729 62.7699C158.622 62.595 158.475 62.4588 158.288 62.3613C158.104 62.2609 157.892 62.2108 157.652 62.2108C157.408 62.2108 157.19 62.2638 156.998 62.3699C156.805 62.4731 156.652 62.6151 156.539 62.7957C156.426 62.9735 156.367 63.1756 156.361 63.4022V64.6452C156.361 64.9147 156.416 65.1513 156.526 65.3548C156.636 65.5556 156.791 65.7118 156.993 65.8237C157.195 65.9355 157.435 65.9914 157.714 65.9914C157.907 65.9914 158.082 65.9656 158.239 65.914C158.396 65.8624 158.531 65.7864 158.644 65.686C158.757 65.5857 158.841 65.4624 158.898 65.3161L160.896 65.372C160.813 65.805 160.63 66.1821 160.348 66.5032C160.07 66.8215 159.703 67.0695 159.249 67.2473C158.795 67.4222 158.27 67.5097 157.674 67.5097Z" fill="white"/>
<path d="M167.913 67.5097C167.195 67.5097 166.578 67.3677 166.061 67.0839C165.548 66.7971 165.152 66.3986 164.873 65.8882C164.597 65.3749 164.459 64.7799 164.459 64.1032C164.459 63.4237 164.597 62.8287 164.873 62.3183C165.152 61.805 165.548 61.4065 166.061 61.1226C166.578 60.8358 167.195 60.6925 167.913 60.6925C168.63 60.6925 169.246 60.8358 169.759 61.1226C170.276 61.4065 170.672 61.805 170.947 62.3183C171.226 62.8287 171.366 63.4237 171.366 64.1032C171.366 64.7799 171.226 65.3749 170.947 65.8882C170.672 66.3986 170.276 66.7971 169.759 67.0839C169.246 67.3677 168.63 67.5097 167.913 67.5097ZM167.926 65.9226C168.187 65.9226 168.408 65.8452 168.589 65.6903C168.77 65.5355 168.908 65.3204 169.003 65.0452C169.101 64.7699 169.15 64.4516 169.15 64.0903C169.15 63.7233 169.101 63.4022 169.003 63.1269C168.908 62.8516 168.77 62.6366 168.589 62.4817C168.408 62.3269 168.187 62.2495 167.926 62.2495C167.656 62.2495 167.427 62.3269 167.241 62.4817C167.057 62.6366 166.916 62.8516 166.818 63.1269C166.723 63.4022 166.675 63.7233 166.675 64.0903C166.675 64.4516 166.723 64.7699 166.818 65.0452C166.916 65.3204 167.057 65.5355 167.241 65.6903C167.427 65.8452 167.656 65.9226 167.926 65.9226Z" fill="white"/>
<path d="M176.365 60.7785V62.3269H171.969V60.7785H176.365ZM172.886 67.3849V60.443C172.886 59.9326 172.985 59.5097 173.184 59.1742C173.382 58.8358 173.658 58.5835 174.011 58.4172C174.364 58.248 174.772 58.1634 175.235 58.1634C175.538 58.1634 175.823 58.1864 176.09 58.2323C176.36 58.2753 176.56 58.314 176.69 58.3484L176.343 59.8882C176.263 59.8624 176.165 59.8409 176.05 59.8237C175.937 59.8065 175.83 59.7978 175.729 59.7978C175.474 59.7978 175.299 59.8523 175.204 59.9613C175.109 60.0703 175.062 60.2194 175.062 60.4086V67.3849H172.886Z" fill="white"/>
<path d="M180.105 67.3849V58.5763H183.905C184.587 58.5763 185.158 58.6695 185.618 58.8559C186.081 59.0423 186.428 59.3032 186.66 59.6387C186.894 59.9742 187.011 60.3627 187.011 60.8043C187.011 61.1398 186.939 61.4394 186.793 61.7032C186.648 61.9642 186.448 62.1806 186.192 62.3527C185.937 62.5247 185.642 62.6452 185.307 62.714V62.8C185.675 62.8172 186.014 62.9133 186.326 63.0882C186.64 63.2631 186.893 63.5068 187.082 63.8194C187.272 64.129 187.367 64.4961 187.367 64.9204C187.367 65.3935 187.243 65.8165 186.993 66.1892C186.744 66.5591 186.384 66.8516 185.912 67.0667C185.44 67.2789 184.868 67.3849 184.194 67.3849H180.105ZM182.307 65.6688H183.669C184.147 65.6688 184.498 65.5814 184.724 65.4065C184.952 65.2315 185.067 64.9878 185.067 64.6753C185.067 64.4487 185.012 64.2538 184.902 64.0903C184.792 63.924 184.636 63.7964 184.435 63.7075C184.233 63.6158 183.991 63.5699 183.709 63.5699H182.307V65.6688ZM182.307 62.1978H183.527C183.767 62.1978 183.981 62.1591 184.168 62.0817C184.354 62.0043 184.5 61.8925 184.604 61.7462C184.711 61.6 184.764 61.4237 184.764 61.2172C184.764 60.9219 184.656 60.6896 184.439 60.5204C184.222 60.3513 183.93 60.2667 183.562 60.2667H182.307V62.1978Z" fill="white"/>
<path d="M192.836 64.5333V60.7785H195.008V67.3849H192.934V66.1548H192.863C192.712 66.5591 192.454 66.8803 192.089 67.1183C191.727 67.3534 191.289 67.471 190.776 67.471C190.31 67.471 189.901 67.3677 189.548 67.1613C189.195 66.9548 188.92 66.6667 188.724 66.2968C188.529 65.924 188.429 65.4882 188.426 64.9892V60.7785H190.602V64.5763C190.605 64.9348 190.703 65.2172 190.896 65.4237C191.089 65.6301 191.352 65.7333 191.684 65.7333C191.9 65.7333 192.095 65.6875 192.267 65.5957C192.442 65.5011 192.58 65.3649 192.681 65.1871C192.784 65.0065 192.836 64.7885 192.836 64.5333Z" fill="white"/>
<path d="M202.361 62.7957L200.363 62.8473C200.342 62.7097 200.285 62.5878 200.193 62.4817C200.102 62.3728 199.981 62.2882 199.833 62.228C199.688 62.1649 199.519 62.1333 199.326 62.1333C199.074 62.1333 198.858 62.1821 198.68 62.2796C198.505 62.3771 198.419 62.509 198.422 62.6753C198.419 62.8043 198.473 62.9161 198.583 63.0108C198.695 63.1054 198.896 63.1814 199.183 63.2387L200.501 63.4796C201.183 63.6057 201.69 63.8151 202.022 64.1075C202.358 64.4 202.527 64.7871 202.53 65.2688C202.527 65.7219 202.387 66.1161 202.111 66.4516C201.839 66.7871 201.465 67.048 200.99 67.2344C200.515 67.4179 199.972 67.5097 199.361 67.5097C198.385 67.5097 197.615 67.3161 197.052 66.929C196.491 66.5391 196.171 66.0172 196.09 65.3634L198.24 65.3118C198.287 65.5527 198.41 65.7362 198.609 65.8624C198.808 65.9885 199.062 66.0516 199.37 66.0516C199.649 66.0516 199.876 66.0014 200.051 65.9011C200.226 65.8007 200.315 65.6674 200.318 65.5011C200.315 65.352 200.247 65.233 200.113 65.1441C199.98 65.0523 199.771 64.9806 199.486 64.929L198.293 64.7097C197.608 64.5892 197.098 64.367 196.762 64.043C196.427 63.7161 196.261 63.3004 196.264 62.7957C196.261 62.3541 196.383 61.9771 196.629 61.6645C196.875 61.3491 197.225 61.1082 197.679 60.9419C198.133 60.7756 198.669 60.6925 199.286 60.6925C200.211 60.6925 200.941 60.8803 201.475 61.2559C202.009 61.6287 202.304 62.1419 202.361 62.7957Z" fill="white"/>
<path d="M203.601 67.3849V60.7785H205.777V67.3849H203.601ZM204.691 60.0086C204.386 60.0086 204.123 59.9111 203.904 59.7161C203.684 59.5183 203.574 59.2803 203.574 59.0022C203.574 58.7269 203.684 58.4918 203.904 58.2968C204.123 58.0989 204.386 58 204.691 58C205 58 205.263 58.0989 205.479 58.2968C205.699 58.4918 205.808 58.7269 205.808 59.0022C205.808 59.2803 205.699 59.5183 205.479 59.7161C205.263 59.9111 205 60.0086 204.691 60.0086Z" fill="white"/>
<path d="M209.338 63.6172V67.3849H207.162V60.7785H209.232V61.9914H209.307C209.459 61.5871 209.717 61.2703 210.082 61.0409C210.446 60.8086 210.881 60.6925 211.385 60.6925C211.866 60.6925 212.283 60.7971 212.636 61.0065C212.992 61.2129 213.268 61.5025 213.464 61.8753C213.662 62.2452 213.76 62.6781 213.757 63.1742V67.3849H211.581V63.5871C211.584 63.2201 211.488 62.9333 211.292 62.7269C211.099 62.5204 210.831 62.4172 210.487 62.4172C210.258 62.4172 210.056 62.4659 209.881 62.5634C209.709 62.6581 209.576 62.7943 209.481 62.972C209.389 63.1498 209.341 63.3649 209.338 63.6172Z" fill="white"/>
<path d="M218.3 67.5097C217.585 67.5097 216.968 67.3735 216.449 67.1011C215.932 66.8258 215.535 66.4344 215.256 65.9269C214.98 65.4165 214.842 64.81 214.842 64.1075C214.842 63.4251 214.982 62.8287 215.26 62.3183C215.539 61.805 215.932 61.4065 216.44 61.1226C216.947 60.8358 217.545 60.6925 218.233 60.6925C218.72 60.6925 219.165 60.7656 219.568 60.9118C219.972 61.0581 220.32 61.2746 220.614 61.5613C220.908 61.848 221.136 62.2022 221.299 62.6237C221.462 63.0423 221.544 63.5226 221.544 64.0645V64.5892H215.603V63.3677H219.519C219.516 63.1441 219.461 62.9448 219.354 62.7699C219.248 62.595 219.101 62.4588 218.914 62.3613C218.73 62.2609 218.518 62.2108 218.278 62.2108C218.034 62.2108 217.816 62.2638 217.623 62.3699C217.431 62.4731 217.278 62.6151 217.165 62.7957C217.052 62.9735 216.993 63.1756 216.987 63.4022V64.6452C216.987 64.9147 217.042 65.1513 217.152 65.3548C217.261 65.5556 217.417 65.7118 217.619 65.8237C217.821 65.9355 218.061 65.9914 218.34 65.9914C218.533 65.9914 218.708 65.9656 218.865 65.914C219.022 65.8624 219.157 65.7864 219.27 65.686C219.383 65.5857 219.467 65.4624 219.524 65.3161L221.522 65.372C221.439 65.805 221.256 66.1821 220.974 66.5032C220.695 66.8215 220.329 67.0695 219.875 67.2473C219.421 67.4222 218.896 67.5097 218.3 67.5097Z" fill="white"/>
<path d="M228.623 62.7957L226.625 62.8473C226.604 62.7097 226.548 62.5878 226.456 62.4817C226.364 62.3728 226.244 62.2882 226.095 62.228C225.95 62.1649 225.781 62.1333 225.588 62.1333C225.336 62.1333 225.121 62.1821 224.943 62.2796C224.768 62.3771 224.682 62.509 224.685 62.6753C224.682 62.8043 224.735 62.9161 224.845 63.0108C224.957 63.1054 225.158 63.1814 225.446 63.2387L226.763 63.4796C227.445 63.6057 227.952 63.8151 228.285 64.1075C228.62 64.4 228.789 64.7871 228.792 65.2688C228.789 65.7219 228.65 66.1161 228.374 66.4516C228.101 66.7871 227.727 67.048 227.252 67.2344C226.778 67.4179 226.235 67.5097 225.624 67.5097C224.647 67.5097 223.878 67.3161 223.314 66.929C222.753 66.5391 222.433 66.0172 222.353 65.3634L224.502 65.3118C224.55 65.5527 224.673 65.7362 224.871 65.8624C225.07 65.9885 225.324 66.0516 225.632 66.0516C225.911 66.0516 226.138 66.0014 226.313 65.9011C226.488 65.8007 226.577 65.6674 226.58 65.5011C226.577 65.352 226.509 65.233 226.376 65.1441C226.242 65.0523 226.033 64.9806 225.748 64.929L224.555 64.7097C223.87 64.5892 223.36 64.367 223.025 64.043C222.689 63.7161 222.523 63.3004 222.526 62.7957C222.523 62.3541 222.645 61.9771 222.891 61.6645C223.137 61.3491 223.487 61.1082 223.941 60.9419C224.395 60.7756 224.931 60.6925 225.548 60.6925C226.473 60.6925 227.203 60.8803 227.737 61.2559C228.271 61.6287 228.567 62.1419 228.623 62.7957Z" fill="white"/>
<path d="M235.831 62.7957L233.833 62.8473C233.812 62.7097 233.756 62.5878 233.664 62.4817C233.572 62.3728 233.452 62.2882 233.303 62.228C233.158 62.1649 232.989 62.1333 232.796 62.1333C232.544 62.1333 232.329 62.1821 232.151 62.2796C231.976 62.3771 231.89 62.509 231.893 62.6753C231.89 62.8043 231.943 62.9161 232.053 63.0108C232.166 63.1054 232.366 63.1814 232.654 63.2387L233.971 63.4796C234.653 63.6057 235.16 63.8151 235.493 64.1075C235.828 64.4 235.997 64.7871 236 65.2688C235.997 65.7219 235.858 66.1161 235.582 66.4516C235.309 66.7871 234.935 67.048 234.46 67.2344C233.986 67.4179 233.443 67.5097 232.832 67.5097C231.855 67.5097 231.086 67.3161 230.522 66.929C229.961 66.5391 229.641 66.0172 229.561 65.3634L231.71 65.3118C231.758 65.5527 231.881 65.7362 232.079 65.8624C232.278 65.9885 232.532 66.0516 232.84 66.0516C233.119 66.0516 233.346 66.0014 233.521 65.9011C233.696 65.8007 233.785 65.6674 233.788 65.5011C233.785 65.352 233.717 65.233 233.584 65.1441C233.45 65.0523 233.241 64.9806 232.956 64.929L231.764 64.7097C231.078 64.5892 230.568 64.367 230.233 64.043C229.897 63.7161 229.731 63.3004 229.734 62.7957C229.731 62.3541 229.853 61.9771 230.099 61.6645C230.345 61.3491 230.696 61.1082 231.149 60.9419C231.603 60.7756 232.139 60.6925 232.756 60.6925C233.682 60.6925 234.411 60.8803 234.945 61.2559C235.479 61.6287 235.775 62.1419 235.831 62.7957Z" fill="white"/>
</svg>
