<?xml version="1.0" encoding="UTF-8"?>
<!-- Generator: Adobe Illustrator 21.1.0, SVG Export Plug-In . SVG Version: 6.00 Build 0)  -->
<svg version="1.1" id="Layer_1" xmlns="http://www.w3.org/2000/svg" xmlns:xlink="http://www.w3.org/1999/xlink" x="0px" y="0px" viewBox="0 0 282.6 60.3" style="enable-background:new 0 0 282.6 60.3;" xml:space="preserve">
<style type="text/css">
	.st0{fill:#FFFFFF;}
	.st1{fill:#FFD13F;}
	.st2{fill:#CF0A2C;}
	.st3{fill:#683817;}
</style>
<path class="st0" d="M41.1,30.9c0,9.3-10.9,20.5-19.1,25.9C13.9,51.4,2.9,40.2,2.9,30.9v-28h38.1V30.9z M1.7,1.7v29.2  C1.7,41,13.4,52.7,22,58.2c8.6-5.5,20.3-17.2,20.3-27.3V1.7H1.7"/>
<path class="st0" d="M9.8,30.8H8.7v12.3c0.4,0.5,0.7,1,1.1,1.4V30.8z"/>
<path class="st0" d="M27.4,47h4.7c0.4-0.5,0.8-0.9,1.2-1.4C31.1,45.5,29.1,46.1,27.4,47"/>
<path class="st0" d="M35.3,30.8h-1.1v13.7c0.4-0.5,0.8-0.9,1.1-1.4V30.8z"/>
<path class="st0" d="M16.6,47c-1.7-0.9-3.7-1.6-5.9-1.4c0.4,0.5,0.8,1,1.2,1.4H16.6z"/>
<path class="st0" d="M16.9,35.9c0-0.8,0.7-2.7,2.5-2.7c1.8,0,2.6,1.5,2.6,1.5s0.8-1.5,2.6-1.5c1.8,0,2.5,1.9,2.5,2.7  c0,2.7-5.1,5.6-5.1,6.4C22,41.5,16.9,38.6,16.9,35.9 M21.7,43.4h0.5v6c1.9-1.9,5.9-5.1,10.7-5V28.6c-1-0.1-2.6-0.2-3.9-0.2  c-4.4,0-6.2,1.7-6.2,1.8c0,0-0.5,0.5-0.5,2.4h-0.7c0-1.9-0.5-2.4-0.5-2.4c0,0-1.8-1.8-6.3-1.8c-1.2,0-2.8,0.1-3.9,0.2v15.7  c4.8-0.1,8.8,3.1,10.7,5V43.4"/>
<path class="st1" d="M39.6,26.6c0,0,0.7-1,0.7-2.1c0-1.6-1.9-4.1-4.8-4.1c-0.7,0-1.4,0.1-2.2,0.4l5.8-9.1l-9.5,6  c0.1-1.2,0-2.4,0.8-3.2c0.8-0.8,2.4-0.7,2.4-0.7s-0.2-1.1-1-1.9c-1.2-1.1-4.2-1.4-6.2,0.7c-0.5,0.5-0.8,1.1-1.2,1.7L22,3.7  l-2.7,11.8c-0.8-0.9-1.7-1.6-1.8-2.7c-0.1-1.1,1.1-2.2,1.1-2.2s-1-0.6-2.1-0.6c-1.6,0.1-4,2.1-3.8,5c0,0.7,0.2,1.4,0.4,2l-8.4-5.3  l6.4,10c-1.6,0-3,0.5-4.1-0.3c-0.9-0.7-1-2.3-1-2.3S5,19.5,4.4,20.4c-0.9,1.3-0.8,4.4,1.5,6.1c1.1,0.8,2.6,1.2,3.9,1.4v-0.4  c0,0,1.9-0.2,3.7-0.3c0-0.2,0-0.4,0.1-0.6c-1.9,0.2-4.8,0.2-6.3-1c-2.1-1.5-1.8-3.5-1.8-3.5s0.3,0.5,0.8,0.9c2.3,1.7,4.6-0.5,6.7,1  c0.5,0.3,0.8,0.7,1,1c0.2-0.5,0.4-0.9,0.7-1.4l-5.2-7.1l6.9,5c0.4-0.3,0.7-0.6,1.1-0.8c-0.7-0.6-3.1-3.4-3.1-5.6  c0-2.5,1.6-3.3,1.6-3.3s-0.2,0.6-0.2,1.2c0.1,2.9,3.2,3,3.4,5.7c0,0.5,0,0.9-0.1,1.2c0.5-0.2,1-0.3,1.5-0.4l1.4-9l1.4,9  c0.5,0.1,0.9,0.2,1.3,0.3c0-1.3,0.3-4.2,1.8-5.9c1.6-1.8,3.5-1.2,3.5-1.2s-0.6,0.2-1,0.7c-2,2.1,0.1,4.5-1.8,6.5  c-0.3,0.3-0.6,0.5-0.9,0.7c0.4,0.3,0.8,0.5,1.2,0.9l6.9-5l-5.2,7.1c0.2,0.4,0.4,0.8,0.6,1.2c1-1,2.9-2.6,5.1-2.6  c2.5,0,3.5,1.9,3.5,1.9c0,0-0.5-0.2-1.2-0.2c-2.9,0-3.5,3.1-6.1,3.1c-0.3,0-0.6,0-0.8-0.1c0,0.1,0,0.3,0,0.4  c1.3,0.1,2.7,0.2,3.3,0.3c1.4-0.9,2.3-2.3,3.7-2.3C38.6,25.3,39.6,26.6,39.6,26.6"/>
<path class="st1" d="M34.2,29.9h2v11.9c2.4-3.6,4.1-7.4,4.1-10.9v-2.5h-6.1V29.9z"/>
<path class="st1" d="M3.7,30.9c0,3.5,1.6,7.3,4.1,10.9V29.9h2v-1.5H3.7V30.9z"/>
<path class="st1" d="M22,29.3c0,0,0.4-0.4,1.4-0.9c1.1-0.5,2.9-1.1,5.4-1.2c-0.4-3.4-3.3-6.1-6.8-6.1c-3.5,0-6.4,2.7-6.8,6.1  c2.6,0,4.3,0.6,5.4,1.2C21.6,28.9,22,29.3,22,29.3"/>
<path class="st1" d="M22,51.4c0,0-1.5-1.9-3.9-3.5h-5.3c3.1,3.2,6.4,6,9.2,7.9c2.8-1.9,6.1-4.7,9.2-7.9h-5.3  C23.5,49.6,22,51.4,22,51.4"/>
<path class="st2" d="M24.6,33.2c-1.8,0-2.6,1.5-2.6,1.5s-0.8-1.5-2.6-1.5c-1.8,0-2.5,1.9-2.5,2.7c0,2.7,5.1,5.6,5.1,6.4  c0-0.8,5.1-3.7,5.1-6.4C27.1,35.1,26.5,33.2,24.6,33.2"/>
<path class="st3" d="M42.3,30.9C42.3,41,30.6,52.7,22,58.2C13.4,52.7,1.7,41,1.7,30.9V1.7h40.5V30.9z M0.6,0.5v30.4  c0,11.2,13.4,23.8,21.5,28.7c8.1-4.9,21.4-17.5,21.4-28.7V0.5H0.6"/>
<path class="st3" d="M18.1,47.9c2.4,1.6,3.9,3.5,3.9,3.5s1.5-1.9,3.9-3.5h5.3c-3.1,3.2-6.4,6-9.2,7.9c-2.8-1.9-6.1-4.7-9.2-7.9H18.1  z M10.7,45.6c2.2-0.1,4.2,0.5,5.9,1.4h-4.7C11.5,46.5,11.1,46.1,10.7,45.6 M8.7,30.8h1.1v13.7c-0.4-0.5-0.8-0.9-1.1-1.4V30.8   M7.8,41.8c-2.4-3.6-4.1-7.4-4.1-10.9v-2.5h6.1v1.5h-2V41.8 M4.4,20.4c0.6-0.9,1.8-1.3,1.8-1.3s0.1,1.7,1,2.3  c1.1,0.8,2.5,0.2,4.1,0.3l-6.5-10l8.4,5.3c-0.2-0.7-0.4-1.4-0.4-2c-0.1-2.9,2.2-4.9,3.8-5c1.1-0.1,2.1,0.6,2.1,0.6s-1.2,1.1-1.1,2.2  c0.1,1.1,0.9,1.8,1.8,2.7L22,3.7l2.4,10.5c0.3-0.6,0.7-1.2,1.2-1.7c2-2.1,5.1-1.8,6.2-0.7c0.8,0.8,1,1.9,1,1.9s-1.6-0.1-2.4,0.7  c-0.8,0.8-0.7,2-0.8,3.2l9.6-6l-5.9,9.1c0.7-0.2,1.4-0.4,2.2-0.4c2.9,0,4.8,2.5,4.8,4.1c0,1.1-0.7,2.1-0.7,2.1s-1-1.3-2.1-1.3  c-1.4,0-2.3,1.4-3.7,2.3c-0.6-0.1-2-0.2-3.3-0.3c0-0.1,0-0.3,0-0.4c0.2,0,0.5,0.1,0.8,0.1c2.7,0,3.3-3.1,6.1-3.1  c0.6,0,1.2,0.2,1.2,0.2s-0.9-1.9-3.5-1.9c-2.2,0-4.1,1.6-5.1,2.6c-0.2-0.4-0.4-0.8-0.6-1.2l5.2-7.1l-6.9,5c-0.4-0.3-0.8-0.6-1.2-0.9  c0.3-0.2,0.6-0.4,0.9-0.7c1.8-1.9-0.2-4.4,1.8-6.5c0.4-0.5,1-0.7,1-0.7s-1.9-0.6-3.5,1.2c-1.6,1.7-1.8,4.6-1.8,5.9  c-0.4-0.1-0.9-0.3-1.3-0.3l-1.4-9l-1.4,9c-0.5,0.1-1,0.2-1.5,0.4c0.1-0.3,0.1-0.7,0.1-1.2c-0.1-2.6-3.2-2.8-3.4-5.7  c0-0.6,0.2-1.2,0.2-1.2s-1.6,0.8-1.6,3.3c0,2.1,2.4,4.9,3.1,5.6c-0.4,0.2-0.8,0.5-1.1,0.8l-6.9-5l5.2,7.1c-0.3,0.4-0.5,0.9-0.7,1.4  c-0.2-0.3-0.5-0.7-1-1c-2.2-1.5-4.4,0.7-6.7-1c-0.5-0.4-0.8-0.9-0.8-0.9s-0.3,2,1.8,3.5c1.6,1.1,4.4,1.2,6.3,1  c0,0.2-0.1,0.4-0.1,0.6c-1.8,0.1-3.7,0.3-3.7,0.3v0.4c-1.4-0.2-2.8-0.6-3.9-1.4C3.5,24.8,3.4,21.7,4.4,20.4 M40.3,30.9  c0,3.5-1.6,7.3-4.1,10.9V29.9h-2v-1.5h6.1V30.9 M35.3,43.1c-0.4,0.5-0.7,1-1.1,1.4V30.8h1.1V43.1 M15.2,27.2  c0.4-3.4,3.3-6.1,6.8-6.1c3.5,0,6.4,2.7,6.8,6.1c-2.6,0-4.3,0.6-5.4,1.2c-1,0.5-1.4,0.9-1.4,0.9s-0.4-0.4-1.4-0.9  C19.5,27.9,17.8,27.3,15.2,27.2 M21.7,43.4v6c-1.9-1.9-5.9-5.1-10.7-5V28.6c1-0.1,2.6-0.2,3.9-0.2c4.4,0,6.2,1.7,6.3,1.8  c0,0,0.5,0.5,0.5,2.4h0.7c0-1.9,0.5-2.4,0.5-2.4c0,0,1.8-1.8,6.3-1.8c1.2,0,2.8,0.1,3.9,0.2v15.7c-4.8-0.1-8.8,3.1-10.7,5v-6H21.7   M32.1,47h-4.7c1.7-0.9,3.7-1.6,5.9-1.4C32.9,46.1,32.5,46.5,32.1,47 M22,56.8c8.1-5.4,19.1-16.6,19.1-25.9v-28H2.9v28  C2.9,40.2,13.9,51.4,22,56.8"/>
<path class="st0" d="M65.2,45.9v0.5l0.7,0c0.4,0,0.6,0.1,0.7,0.2c0.1,0.2,0.1,0.6,0.1,1.2V53c0,2.7-1.6,3.3-3.3,3.3  c-2.1,0-3.3-0.7-3.3-3v-5.6c0-0.6,0-1,0.1-1.2c0.1-0.2,0.3-0.2,0.7-0.2l0.8,0v-0.5c-0.8,0-1.6,0-2.3,0c-0.8,0-1.5,0-2.4,0v0.5l0.8,0  c0.4,0,0.6,0.1,0.7,0.2c0.1,0.2,0.1,0.6,0.1,1.2v5.7c0,3,1.6,3.8,4.4,3.8c3.3,0,4.6-1.4,4.6-4.8v-4.7c0-0.6,0-1,0.1-1.2  c0.1-0.2,0.3-0.2,0.7-0.2l0.7,0v-0.5c-0.7,0-1.3,0-1.9,0C66.5,45.9,65.9,45.9,65.2,45.9"/>
<path class="st0" d="M92.3,45.9v0.5l0.7,0c0.4,0,0.6,0.1,0.7,0.2c0.1,0.2,0.1,0.6,0.1,1.2v7.5h0L86,45.9c-0.3,0-0.6,0-0.9,0  c-0.6,0-1.2,0-1.9,0v0.5l0.7,0c0.4,0,0.6,0.1,0.7,0.2c0.1,0.2,0.1,0.6,0.1,1.2v7.3c0,0.6,0,1-0.1,1.2c-0.1,0.2-0.3,0.2-0.7,0.2  l-0.7,0v0.5c0.6,0,1.3,0,1.9,0c0.6,0,1.2,0,1.9,0v-0.5l-0.7,0c-0.4,0-0.6-0.1-0.7-0.2c-0.1-0.2-0.1-0.6-0.1-1.2v-7.5h0l7.6,9.5  l1.5,0.3c0-0.2-0.1-0.4-0.1-0.6v-8.9c0-0.6,0-1,0.1-1.2c0.1-0.2,0.3-0.2,0.7-0.2l0.7,0v-0.5c-0.7,0-1.3,0-1.9,0  C93.6,45.9,92.9,45.9,92.3,45.9"/>
<path class="st0" d="M110.4,45.9v0.5l0.8,0c0.4,0,0.6,0.1,0.7,0.2c0.1,0.2,0.1,0.6,0.1,1.2v7.3c0,0.6,0,1-0.1,1.2  c-0.1,0.2-0.3,0.2-0.7,0.2l-0.8,0v0.5c0.8,0,1.6,0,2.4,0c0.7,0,1.5,0,2.3,0v-0.5l-0.8,0c-0.4,0-0.6-0.1-0.7-0.2  c-0.1-0.2-0.1-0.6-0.1-1.2v-7.3c0-0.6,0-1,0.1-1.2c0.1-0.2,0.3-0.2,0.7-0.2l0.8,0v-0.5c-0.8,0-1.6,0-2.3,0  C112,45.9,111.2,45.9,110.4,45.9"/>
<path class="st0" d="M137,45.9v0.5l0.8,0c0.3,0,0.6,0.1,0.6,0.5c0,0.1,0,0.3-0.1,0.6l-3,7.6l-3.2-8.2c0-0.1,0-0.1,0-0.2  c0-0.2,0.3-0.3,0.5-0.3l0.9,0v-0.5c-0.7,0-1.4,0-2.2,0c-0.7,0-1.4,0-2.1,0v0.5l0.6,0c0.3,0,0.5,0.1,0.7,0.7l3,7.5  c0.3,0.8,0.7,1.7,0.9,2.7h0.8c0.3-1,0.6-1.9,1-2.8l2.8-6.8c0.3-0.8,0.5-1.1,0.9-1.2l0.5,0v-0.5c-0.6,0-1.1,0-1.7,0  C138.1,45.9,137.6,45.9,137,45.9"/>
<path class="st0" d="M162.5,56.2c-0.3,0.2-1.9,0.2-3.3,0.2c-0.4,0-0.9,0-1.4-0.1v-4.5c0.5,0,1.1,0,1.9,0c1,0,1.5,0.1,1.7,0.2  c0.1,0.1,0.1,0.2,0.1,0.4l0.1,1h0.5c0-0.6,0-1.2,0-1.8c0-0.6,0-1.2,0-1.9h-0.5l-0.1,0.8c0,0.2,0,0.4-0.1,0.4  c-0.2,0.1-0.7,0.2-1.7,0.2c-0.8,0-1.4,0-1.9-0.1v-4.3c0.5-0.1,0.9-0.1,1.4-0.1c1,0,2.3,0,3.2,0.3c0.1,0,0.1,0.2,0.1,0.4v1.1h0.6  c0-0.8,0.1-1.7,0.3-2.5c-0.6,0-1.4,0-2.1,0c-0.9,0-2.4,0-3.8,0c-0.5,0-0.9,0-1.4,0c-0.5,0-0.9,0-1.4,0v0.5l0.8,0  c0.4,0,0.6,0.1,0.7,0.2c0.1,0.2,0.1,0.6,0.1,1.2v7.3c0,0.6,0,1-0.1,1.2c-0.1,0.2-0.3,0.2-0.7,0.2l-0.6,0v0.5c0.6,0,1.1,0,1.7,0  c1,0,2.3,0,3.5,0h0.5c1,0,2.1,0,2.7,0c0-0.9,0.1-1.9,0.3-2.6H163C162.9,55.4,162.7,56.1,162.5,56.2"/>
<path class="st0" d="M184,51.4c1.6-0.3,3.2-1.4,3.2-3.1c0-1.1-0.7-2.4-3.1-2.4h-0.1c-0.9,0-1.9,0-2.8,0c-1,0-1.9,0-2.7,0v0.5l0.7,0  c0.4,0,0.6,0.1,0.7,0.2c0.1,0.2,0.1,0.6,0.1,1.2v7.3c0,0.6,0,1-0.1,1.2c-0.1,0.2-0.3,0.2-0.7,0.2l-0.8,0v0.5c0.8,0,1.6,0,2.4,0  c0.7,0,1.5,0,2.3,0v-0.5l-0.8,0c-0.4,0-0.6-0.1-0.7-0.2c-0.1-0.2-0.1-0.6-0.1-1.2v-8.4c0.5-0.1,0.9-0.2,1.6-0.2  c1.3,0,2.6,0.5,2.6,2.2c0,1.2-1,2.1-2.1,2.3c-0.3,0-0.7,0.1-1,0.1c-0.2,0-0.3,0-0.4,0l-0.1,0.2c0.3,0.3,0.6,0.6,0.8,1l3,4  c0.2,0.3,0.4,0.6,0.7,0.9c0.4,0,0.7,0,1.1,0c0.4,0,0.7,0,1.2,0v-0.5c-0.4,0-0.7-0.1-1-0.4L184,51.4z"/>
<path class="st0" d="M206.7,50.6c-2-0.2-2.7-0.9-2.7-2c0-1.6,1.3-2.4,2.4-2.4c0.6,0,1.3,0.1,1.8,0.4c0.6,0.4,0.7,0.5,0.7,1l0.1,0.9  h0.5c0-0.8,0.1-1.5,0.2-2.3c-0.7-0.3-1.6-0.7-2.9-0.7c-1.9,0-4.1,1.1-4.1,3.7c0,1.7,1,2.5,3.5,2.8c1.6,0.2,2.8,0.6,2.8,2.2  c0,1.6-1.4,2.5-2.9,2.5c-1.3,0-2.6-0.6-2.6-1.3l-0.1-1.1h-0.5v0.6c0,0.6,0,1.2-0.1,1.9c0.5,0.3,1.6,0.6,2.8,0.6  c2.4,0,4.9-1.3,4.9-4.1C210.4,51.4,209,50.9,206.7,50.6"/>
<path class="st0" d="M224.7,45.9v0.5l0.8,0c0.4,0,0.6,0.1,0.7,0.2c0.1,0.2,0.1,0.6,0.1,1.2v7.3c0,0.6,0,1-0.1,1.2  c-0.1,0.2-0.3,0.2-0.7,0.2l-0.8,0v0.5c0.8,0,1.6,0,2.4,0c0.7,0,1.5,0,2.3,0v-0.5l-0.8,0c-0.4,0-0.6-0.1-0.7-0.2  c-0.1-0.2-0.1-0.6-0.1-1.2v-7.3c0-0.6,0-1,0.1-1.2c0.1-0.2,0.3-0.2,0.7-0.2l0.8,0v-0.5c-0.8,0-1.6,0-2.3,0  C226.3,45.9,225.6,45.9,224.7,45.9"/>
<path class="st0" d="M249.6,45.9h-2.3c-1.2,0-2.3,0-3.5,0c0.1,0.8,0.1,1.7,0.1,2.6h0.5l0.1-1.3c0-0.4,0.2-0.5,0.6-0.5h2.5  c0,0.5,0.1,1,0.1,1.6v6.8c0,0.6,0,1-0.1,1.2c-0.1,0.2-0.3,0.2-0.7,0.2l-0.8,0v0.5c0.8,0,1.6,0,2.4,0c0.7,0,1.5,0,2.3,0v-0.5l-0.8,0  c-0.4,0-0.6-0.1-0.7-0.2c-0.1-0.2-0.1-0.6-0.1-1.2v-6.8c0-0.6,0-1.1,0.1-1.6h2.5c0.5,0,0.6,0.1,0.6,0.5l0.1,1.3h0.5  c0-0.9,0-1.8,0.1-2.6c-0.6,0-1.2,0-1.7,0C250.7,45.9,250.2,45.9,249.6,45.9"/>
<path class="st0" d="M274.5,48.9l-1.7,2.6l-2.3-4.2c-0.2-0.4-0.4-0.7-0.7-1.1c-0.3-0.3-0.5-0.6-0.8-0.6c0,0-0.1,0-0.1,0l-1.9,0.4  v0.5l0.5,0.1c0.4,0,1.2,0.6,2.1,2.1l2,3.5c0.1,0.2,0.1,0.4,0.1,0.6v2.3c0,0.6,0,1-0.1,1.2c-0.1,0.2-0.3,0.2-0.7,0.2l-0.8,0v0.5  c0.8,0,1.6,0,2.4,0c0.7,0,1.5,0,2.3,0v-0.5l-0.8,0c-0.4,0-0.6-0.1-0.7-0.2c-0.1-0.2-0.1-0.6-0.1-1.2V53c0-0.4,0-0.8,0.2-1.2  c0.7-1.4,2.6-4.2,4-5.7v-0.2h-1.3C275.7,46.9,275.2,47.9,274.5,48.9"/>
<path class="st0" d="M87.2,29.2h-1.8L84.7,32c-0.3,1.2-0.6,3-1.2,3.5c-0.9,0.9-7.7,1.1-12.2,1.1c-1.5,0-3.1-0.1-4.6-0.4V7.3  c0-2.1,0.1-3.5,0.5-4.2c0.3-0.5,1-0.8,2.3-0.8l2.7-0.2V0.5c-2.9,0.1-5.5,0.2-8,0.2c-2.7,0-5.3-0.1-8.2-0.2v1.7l2.7,0.2  c1.3,0.1,2,0.3,2.3,0.8c0.4,0.6,0.5,2,0.5,4.2v26.2c0,1.5-0.4,2.8-1.4,3.3l-1.7,0.9v1.3c1.4-0.1,2.8-0.2,4.7-0.2  c3.4,0,7.1,0.1,12.1,0.2h1.7c3.5,0,7.1-0.1,9.2-0.2C86.4,36,86.8,32.3,87.2,29.2"/>
<path class="st0" d="M116.3,35.9c-1,0.6-6.6,0.7-11.2,0.7c-1.5,0-3.1-0.1-4.6-0.4V20.7c1.7-0.2,3.8-0.2,6.4-0.2  c3.4,0,5.3,0.2,5.9,0.7c0.3,0.2,0.4,0.7,0.4,1.4l0.3,3.3h1.7c-0.1-2-0.2-4.1-0.2-6.1c0-2,0.1-4.2,0.2-6.4h-1.7l-0.3,2.9  c-0.1,0.7-0.2,1.2-0.4,1.4c-0.6,0.4-2.5,0.6-5.9,0.6c-2.7,0-4.6-0.1-6.4-0.2V3.2c1.5-0.4,3.2-0.4,4.6-0.4c3.5,0,7.9,0.1,10.8,1.2  c0.4,0.2,0.5,0.8,0.5,1.5V9h1.9c0-2.8,0.3-6,0.9-8.4c-2.2-0.1-4.6-0.2-7.1-0.2c-3.2,0-8.2,0.2-13.1,0.2c-1.5,0-3.2-0.1-4.7-0.1  c-1.6-0.1-3.1-0.1-4.6-0.1v1.7l2.7,0.2c1.3,0.1,2,0.3,2.3,0.8c0.4,0.6,0.5,2,0.5,4.2v24.8c0,2.1-0.1,3.5-0.5,4.1  c-0.3,0.6-1,0.7-2.3,0.8l-2,0.2v1.7c2-0.1,3.8-0.2,5.9-0.2c3.4,0,7.8,0.1,12.1,0.2h1.7c3.5,0,7.1-0.1,9.2-0.2c0-3,0.3-6.4,0.9-9.1  h-1.9C117.8,33,117.1,35.4,116.3,35.9"/>
<path class="st0" d="M151.6,0.5v1.7l2.7,0.2c1.3,0.1,2,0.3,2.3,0.8c0.4,0.6,0.5,2,0.5,4.1v9.9c-0.7,0.1-2.2,0.1-4.6,0.1h-13  c-2.4,0-3.9-0.1-4.6-0.1V7.3c0-2.1,0.1-3.5,0.5-4.1c0.3-0.6,1-0.8,2.3-0.8l2.7-0.2V0.5c-2.9,0.1-5.5,0.2-8,0.2  c-2.7,0-5.3-0.1-8.2-0.2v1.7l2.7,0.2c1.3,0.1,2,0.3,2.3,0.8c0.4,0.6,0.5,2,0.5,4.1v24.8c0,2.1-0.1,3.5-0.5,4.2  c-0.3,0.5-1,0.8-2.3,0.8l-2.7,0.2v1.7c2.9-0.1,5.5-0.2,8.2-0.2c2.5,0,5.1,0.1,8,0.2v-1.7l-2.7-0.2c-1.3-0.1-2-0.3-2.3-0.8  c-0.4-0.6-0.5-2-0.5-4.2V19.8c0.7-0.1,2.2-0.1,4.6-0.1h13c2.4,0,3.9,0.1,4.6,0.1v12.3c0,2.1-0.1,3.5-0.5,4.2c-0.3,0.5-1,0.8-2.3,0.8  l-2.7,0.2v1.7c2.9-0.1,5.5-0.2,8.2-0.2c2.5,0,5.2,0.1,8,0.2v-1.7l-2.7-0.2c-1.3-0.1-2-0.3-2.3-0.8c-0.4-0.6-0.5-2-0.5-4.2V7.3  c0-2.1,0.1-3.5,0.5-4.1c0.3-0.6,1-0.8,2.3-0.8l2.7-0.2V0.5c-2.9,0.1-5.5,0.2-8,0.2C157,0.6,154.4,0.6,151.6,0.5"/>
<path class="st0" d="M172.6,0.5v1.7l2.7,0.2c1.3,0.1,2,0.3,2.3,0.8c0.4,0.6,0.5,2,0.5,4.1v24.8c0,2.1-0.1,3.5-0.5,4.2  c-0.3,0.5-1,0.8-2.3,0.8l-2.7,0.2v1.7c2.9-0.1,5.5-0.2,8.2-0.2c2.5,0,5.2,0.1,8,0.2v-1.7l-2.7-0.2c-1.3-0.1-2-0.3-2.3-0.8  c-0.4-0.6-0.5-2-0.5-4.2V7.3c0-2.1,0.1-3.5,0.5-4.1c0.3-0.6,1-0.8,2.3-0.8l2.7-0.2V0.5c-2.9,0.1-5.5,0.2-8,0.2  C178.1,0.6,175.5,0.6,172.6,0.5"/>
<path class="st0" d="M224,23.7c-2.1,0-4.3-0.1-6.4-0.1v1.6l4.4,0.4c1.4,0.1,1.8,0.6,1.8,1.8v5.3c0,1.3-0.1,1.6-0.3,2.2  c-0.3,0.9-3.3,1.8-7.4,1.8c-10.9,0-17-7.5-17-18c0-9.4,5.2-16,15.2-16c3.4,0,5.7,0.4,7.4,0.9c2.5,0.9,4.4,1.7,4.4,4.2v2.8h1.6  c0-2.7,0.4-5.5,1.1-8c-2.4-0.7-6.5-2.2-13.1-2.2c-12.7,0-22.3,7.5-22.3,19.1c0,13.2,9.5,19.4,21.3,19.4c3.6,0,9.3-1.4,13.9-2.7v-8.9  c0-1.5,0-1.7,0.6-1.9l1.5-0.5l-0.2-1.3C228.4,23.6,226.2,23.7,224,23.7"/>
<path class="st0" d="M262.3,0.5v1.7l2.7,0.2c1.3,0.1,2,0.3,2.3,0.8c0.4,0.6,0.5,2,0.5,4.1v9.9c-0.7,0.1-2.2,0.1-4.6,0.1h-13  c-2.4,0-3.9-0.1-4.6-0.1V7.3c0-2.1,0.1-3.5,0.5-4.1c0.3-0.6,1-0.8,2.3-0.8l2.7-0.2V0.5c-2.9,0.1-5.5,0.2-8,0.2  c-2.7,0-5.3-0.1-8.2-0.2v1.7l2.7,0.2c1.3,0.1,2,0.3,2.3,0.8c0.4,0.6,0.5,2,0.5,4.1v24.8c0,2.1-0.1,3.5-0.5,4.2  c-0.3,0.5-1,0.8-2.3,0.8l-2.7,0.2v1.7c2.9-0.1,5.5-0.2,8.2-0.2c2.5,0,5.1,0.1,8,0.2v-1.7l-2.7-0.2c-1.3-0.1-2-0.3-2.3-0.8  c-0.4-0.6-0.5-2-0.5-4.2V19.8c0.7-0.1,2.2-0.1,4.6-0.1h13c2.4,0,3.9,0.1,4.6,0.1v12.3c0,2.1-0.1,3.5-0.5,4.2c-0.3,0.5-1,0.8-2.3,0.8  l-2.7,0.2v1.7c2.9-0.1,5.5-0.2,8.2-0.2c2.5,0,5.2,0.1,8,0.2v-1.7l-2.7-0.2c-1.3-0.1-2-0.3-2.3-0.8c-0.4-0.6-0.5-2-0.5-4.2V7.3  c0-2.1,0.1-3.5,0.5-4.1c0.3-0.6,1-0.8,2.3-0.8l2.7-0.2V0.5c-2.9,0.1-5.5,0.2-8,0.2C267.8,0.6,265.2,0.6,262.3,0.5"/>
</svg>