<svg
  width="497.20001220703125"
  height="151.8541909203741"
  viewBox="0 0 406 124"
  class="css-1j8o68f"
>
  <defs id="SvgjsDefs3680"></defs>
  <g
    id="SvgjsG3681"
    featurekey="LwVBM5-0"
    transform="matrix(1.1990408551362661,0,0,1.1990408551362661,-9.952039326329903,2.39807713629466)"
    fill="#000000"
  >
    <title xmlns="http://www.w3.org/2000/svg">5</title>
    <path
      xmlns="http://www.w3.org/2000/svg"
      class="st0"
      d="M27.1,69.9l15.5-9c0.6-0.3,0.9-0.9,0.9-1.6v-15l5.8,3.4l0.9,0.3c1-0.1,1.8-1,1.8-2c0-0.6-0.4-1.2-0.9-1.5  L43,39.8h0l-0.4-0.3l-15.8-9.2c-0.6-0.3-1.3-0.3-1.9,0L9.2,39.4c-0.5,0.3-0.8,0.8-0.9,1.3v0.2l0,0v18.3c0,0.7,0.3,1.3,0.9,1.6  l15.6,9C26,70.6,27.1,69.9,27.1,69.9z M33.7,38.6l4.2,2.4l-12,6.8l-4.1-2.3l11.6-6.7L33.7,38.6z M27.7,65.1V51l12.1-6.8v13.9  L27.7,65.1z M25.9,34l4.2,2.4l-12.1,7L13.8,41L25.9,34z M12,44.2l4.2,2.4v8.1c0,1,0.8,1.8,1.8,1.8l0,0c1,0,1.9-0.9,1.9-1.9l0,0v-6  L24,51v14.1l-12-7V44.2z"
      style="fill: #000000"
    ></path>
    <path
      xmlns="http://www.w3.org/2000/svg"
      class="st0"
      d="M91.7,40.9v-0.2c-0.1-0.5-0.4-1-0.9-1.3l-15.7-9.1c-0.6-0.3-1.3-0.3-1.9,0l-15.8,9.1c-0.5,0.3-0.8,0.8-0.9,1.3  v0.2l0,0v15.3l-5.4-2.8c-0.8-0.7-2-0.6-2.7,0.3c-0.7,0.8-0.6,2,0.3,2.7c0.2,0.2,0.5,0.3,0.7,0.4l8.1,4.2l15.1,8.8  c0,0,1.3,0.8,2.6-0.1l15.6-9c0.6-0.3,0.9-0.9,0.9-1.6V40.9L91.7,40.9z M74.1,34l12.1,7L82,43.4l-12-6.9L74.1,34z M74.1,47.8l-12-6.8  l4.2-2.4l11.9,7L74.1,47.8z M60.2,44.2L72.3,51v14.1l-12.1-7L60.2,44.2z M76,65.1V51l4.2-2.4v6c0,1,0.8,1.8,1.8,1.9l0,0  c1,0,1.9-0.9,1.9-1.9v0v-8l4.1-2.4v13.9L76,65.1z"
      style="fill: #000000"
    ></path>
    <path
      xmlns="http://www.w3.org/2000/svg"
      class="st0"
      d="M33.3,28.8l7.8,4.5l0,0c0,0,6,3.5,7.9,4.5c0.7,0.4,2.7,0.3,2.7-1.8c0-0.6-0.4-1.2-0.9-1.5l-5.1-3l0.8-0.5  c2.1-1.2,4.8-1.2,6.9,0l3.6,2.1c1,0.3,2.1-0.3,2.3-1.3c0.2-0.6,0-1.2-0.3-1.7L55.4,28c-3.3-1.8-7.2-1.8-10.5,0l-2.7,1.5L38,27.1  l4.4-2.5c4.8-2.7,10.6-2.7,15.4,0l7.2,4.1c1,0.3,2.1-0.4,2.3-1.4c0.2-0.7,0-1.4-0.5-1.8l-7.2-4.1c-5.9-3.4-13.2-3.4-19.1,0l-7.2,4.1  C31.7,26.5,32.4,28.2,33.3,28.8z"
      style="fill: #000000"
    ></path>
    <path
      xmlns="http://www.w3.org/2000/svg"
      class="st0"
      d="M66.7,71.6l-7.8-4.5h-0.1l-7.7-4.5c-1-0.3-2.1,0.3-2.4,1.3c-0.2,0.5-0.1,1.1,0.3,1.6l5,2.9l-0.7,0.4  c-2.1,1.2-4.8,1.2-6.9,0l-3.7-2.1c-1-0.2-2,0.5-2.2,1.5c-0.1,0.6,0.1,1.2,0.5,1.7l3.7,2.1c3.3,1.8,7.2,1.8,10.5,0l2.5-1.4l4.2,2.4  l-4.3,2.5c-4.7,2.7-10.5,2.7-15.2,0l-7.1-4c-1-0.3-2.1,0.4-2.3,1.4c-0.2,0.7,0,1.4,0.5,1.8l7.1,4c5.8,3.3,13,3.3,18.8,0l6.9-4  c0.4-0.2,0.7-0.4,0.9-0.8C68,72.4,66.7,71.6,66.7,71.6z"
      style="fill: #000000"
    ></path>
  </g>
  <g
    id="SvgjsG3682"
    featurekey="textGroupContainer"
    transform="matrix(1,0,0,1,405,0)"
    fill="#000000"
  >
    <rect
      xmlns="http://www.w3.org/2000/svg"
      y="0"
      height="1"
      width="1"
      opacity="0"
    ></rect>
    <rect
      xmlns="http://www.w3.org/2000/svg"
      y="0"
      x="-285"
      width="3"
      height="124"
    ></rect>
  </g>
  <g
    id="SvgjsG3683"
    featurekey="YhTCwJ-0"
    transform="matrix(4.13359791488444,0,0,4.13359791488444,134.11442068006187,8.347883347591143)"
    fill="#000000"
  >
    <path
      d="M8.14 5.48 q1.66 0 2.94 0.59 t2.06 1.63 l-1.46 1.06 q-0.64 -0.86 -1.58 -1.29 t-1.96 -0.43 q-2.26 0 -3.81 1.72 t-1.59 4.16 q0 2.52 1.54 4.19 t3.86 1.69 q2.54 0 4.1 -1.98 l1.26 1.06 q-1.86 2.48 -5.36 2.48 q-3.1 0 -5.13 -2.14 t-2.07 -5.3 q0 -3.16 2.05 -5.28 t5.15 -2.16 z M19.98 5.48 q2.58 0 3.96 1.66 l-1.38 1.2 q-0.8 -1.26 -2.58 -1.3 q-1.34 0 -2.18 0.64 t-0.84 1.74 q0 0.96 0.64 1.52 t2.4 1.1 q2.28 0.66 3.23 1.61 t0.95 2.57 q0 1.88 -1.4 3 t-3.58 1.14 q-1.46 0 -2.6 -0.52 t-1.76 -1.44 l1.44 -1.18 q0.46 0.76 1.28 1.17 t1.74 0.41 q1.26 0 2.17 -0.71 t0.91 -1.75 q0 -0.94 -0.53 -1.48 t-1.75 -0.92 l-1.62 -0.54 q-1.82 -0.62 -2.57 -1.55 t-0.75 -2.29 q0 -1.8 1.34 -2.93 t3.48 -1.15 z M33.34 5.48 q1.66 0 2.94 0.59 t2.06 1.63 l-1.46 1.06 q-0.64 -0.86 -1.58 -1.29 t-1.96 -0.43 q-2.26 0 -3.81 1.72 t-1.59 4.16 q0 2.52 1.54 4.19 t3.86 1.69 q2.54 0 4.1 -1.98 l1.26 1.06 q-1.86 2.48 -5.36 2.48 q-3.1 0 -5.13 -2.14 t-2.07 -5.3 q0 -3.16 2.05 -5.28 t5.15 -2.16 z M44.9 5.84 q2.78 0 4.09 0.92 t1.31 2.96 q0 1.5 -0.89 2.47 t-2.65 1.29 l4.02 6.52 l-2.06 0 l-3.84 -6.36 l-2.16 0 l0 6.36 l-1.68 0 l0 -14.16 l3.86 0 z M44.72 12.08 q1.98 0 2.88 -0.55 t0.9 -1.79 q0 -1.2 -0.81 -1.77 t-2.51 -0.57 l-2.46 0 l0 4.68 l2 0 z M54.94 5.84 l0 12.6 l6.48 0 l0 1.56 l-8.16 0 l0 -14.16 l1.68 0 z"
    ></path>
  </g>
</svg>
